<svg xmlns="http://www.w3.org/2000/svg" viewBox="0 0 900 600" width="900" height="600" role="img" aria-label="Engraving of a chessboard four moves in, one square marked in ember"><defs>
    <pattern id="h45" width="7" height="7" patternUnits="userSpaceOnUse" patternTransform="rotate(45)">
      <line x1="0" y1="0" x2="0" y2="7" stroke="#1d1d1b" stroke-width="1" opacity="0.55"/>
    </pattern>
    <pattern id="h45f" width="4" height="4" patternUnits="userSpaceOnUse" patternTransform="rotate(45)">
      <line x1="0" y1="0" x2="0" y2="4" stroke="#1d1d1b" stroke-width="1" opacity="0.7"/>
    </pattern>
    <pattern id="hv" width="6" height="6" patternUnits="userSpaceOnUse">
      <line x1="0" y1="0" x2="0" y2="6" stroke="#1d1d1b" stroke-width="1" opacity="0.45"/>
    </pattern>
    <pattern id="dots" width="8" height="8" patternUnits="userSpaceOnUse">
      <circle cx="2" cy="2" r="1.35" fill="#1d1d1b" opacity="0.5"/>
      <circle cx="6" cy="6" r="1.35" fill="#1d1d1b" opacity="0.5"/>
    </pattern>
    <pattern id="dotsf" width="5" height="5" patternUnits="userSpaceOnUse">
      <circle cx="1.6" cy="1.6" r="1" fill="#1d1d1b" opacity="0.62"/>
    </pattern>
    <pattern id="emberdots" width="7" height="7" patternUnits="userSpaceOnUse">
      <circle cx="2" cy="2" r="1.5" fill="#c03f13" opacity="0.85"/>
      <circle cx="5.5" cy="5.5" r="1.5" fill="#c03f13" opacity="0.85"/>
    </pattern>
  </defs><rect width="900" height="600" fill="#cdc6be"/><rect x="255.6" y="44.8" width="64.8" height="64.8" fill="url(#dotsf)"/><rect x="255.6" y="44.8" width="64.8" height="64.8" fill="url(#h45f)"/><rect x="385.2" y="44.8" width="64.8" height="64.8" fill="url(#dotsf)"/><rect x="385.2" y="44.8" width="64.8" height="64.8" fill="url(#h45f)"/><rect x="514.8" y="44.8" width="64.8" height="64.8" fill="url(#dotsf)"/><rect x="514.8" y="44.8" width="64.8" height="64.8" fill="url(#h45f)"/><rect x="644.4" y="44.8" width="64.8" height="64.8" fill="url(#dotsf)"/><rect x="644.4" y="44.8" width="64.8" height="64.8" fill="url(#h45f)"/><rect x="190.8" y="109.6" width="64.8" height="64.8" fill="url(#dotsf)"/><rect x="190.8" y="109.6" width="64.8" height="64.8" fill="url(#h45f)"/><rect x="320.4" y="109.6" width="64.8" height="64.8" fill="url(#dotsf)"/><rect x="320.4" y="109.6" width="64.8" height="64.8" fill="url(#h45f)"/><rect x="450.0" y="109.6" width="64.8" height="64.8" fill="url(#dotsf)"/><rect x="450.0" y="109.6" width="64.8" height="64.8" fill="url(#h45f)"/><rect x="579.6" y="109.6" width="64.8" height="64.8" fill="url(#dotsf)"/><rect x="579.6" y="109.6" width="64.8" height="64.8" fill="url(#h45f)"/><rect x="255.6" y="174.4" width="64.8" height="64.8" fill="url(#dotsf)"/><rect x="255.6" y="174.4" width="64.8" height="64.8" fill="url(#h45f)"/><rect x="385.2" y="174.4" width="64.8" height="64.8" fill="url(#dotsf)"/><rect x="385.2" y="174.4" width="64.8" height="64.8" fill="url(#h45f)"/><rect x="514.8" y="174.4" width="64.8" height="64.8" fill="url(#dotsf)"/><rect x="514.8" y="174.4" width="64.8" height="64.8" fill="url(#h45f)"/><rect x="644.4" y="174.4" width="64.8" height="64.8" fill="url(#dotsf)"/><rect x="644.4" y="174.4" width="64.8" height="64.8" fill="url(#h45f)"/><rect x="190.8" y="239.2" width="64.8" height="64.8" fill="url(#dotsf)"/><rect x="190.8" y="239.2" width="64.8" height="64.8" fill="url(#h45f)"/><rect x="320.4" y="239.2" width="64.8" height="64.8" fill="url(#dotsf)"/><rect x="320.4" y="239.2" width="64.8" height="64.8" fill="url(#h45f)"/><rect x="450.0" y="239.2" width="64.8" height="64.8" fill="url(#dotsf)"/><rect x="450.0" y="239.2" width="64.8" height="64.8" fill="url(#h45f)"/><rect x="579.6" y="239.2" width="64.8" height="64.8" fill="url(#dotsf)"/><rect x="579.6" y="239.2" width="64.8" height="64.8" fill="url(#h45f)"/><rect x="255.6" y="304.0" width="64.8" height="64.8" fill="url(#dotsf)"/><rect x="255.6" y="304.0" width="64.8" height="64.8" fill="url(#h45f)"/><rect x="385.2" y="304.0" width="64.8" height="64.8" fill="url(#dotsf)"/><rect x="385.2" y="304.0" width="64.8" height="64.8" fill="url(#h45f)"/><rect x="514.8" y="304.0" width="64.8" height="64.8" fill="url(#dotsf)"/><rect x="514.8" y="304.0" width="64.8" height="64.8" fill="url(#h45f)"/><rect x="644.4" y="304.0" width="64.8" height="64.8" fill="url(#dotsf)"/><rect x="644.4" y="304.0" width="64.8" height="64.8" fill="url(#h45f)"/><rect x="190.8" y="368.8" width="64.8" height="64.8" fill="url(#dotsf)"/><rect x="190.8" y="368.8" width="64.8" height="64.8" fill="url(#h45f)"/><rect x="320.4" y="368.8" width="64.8" height="64.8" fill="url(#dotsf)"/><rect x="320.4" y="368.8" width="64.8" height="64.8" fill="url(#h45f)"/><rect x="450.0" y="368.8" width="64.8" height="64.8" fill="url(#dotsf)"/><rect x="450.0" y="368.8" width="64.8" height="64.8" fill="url(#h45f)"/><rect x="579.6" y="368.8" width="64.8" height="64.8" fill="url(#dotsf)"/><rect x="579.6" y="368.8" width="64.8" height="64.8" fill="url(#h45f)"/><rect x="255.6" y="433.6" width="64.8" height="64.8" fill="url(#dotsf)"/><rect x="255.6" y="433.6" width="64.8" height="64.8" fill="url(#h45f)"/><rect x="385.2" y="433.6" width="64.8" height="64.8" fill="url(#dotsf)"/><rect x="385.2" y="433.6" width="64.8" height="64.8" fill="url(#h45f)"/><rect x="514.8" y="433.6" width="64.8" height="64.8" fill="url(#dotsf)"/><rect x="514.8" y="433.6" width="64.8" height="64.8" fill="url(#h45f)"/><rect x="644.4" y="433.6" width="64.8" height="64.8" fill="url(#dotsf)"/><rect x="644.4" y="433.6" width="64.8" height="64.8" fill="url(#h45f)"/><rect x="190.8" y="498.4" width="64.8" height="64.8" fill="url(#dotsf)"/><rect x="190.8" y="498.4" width="64.8" height="64.8" fill="url(#h45f)"/><rect x="320.4" y="498.4" width="64.8" height="64.8" fill="url(#dotsf)"/><rect x="320.4" y="498.4" width="64.8" height="64.8" fill="url(#h45f)"/><rect x="450.0" y="498.4" width="64.8" height="64.8" fill="url(#dotsf)"/><rect x="450.0" y="498.4" width="64.8" height="64.8" fill="url(#h45f)"/><rect x="579.6" y="498.4" width="64.8" height="64.8" fill="url(#dotsf)"/><rect x="579.6" y="498.4" width="64.8" height="64.8" fill="url(#h45f)"/><rect x="190.8" y="44.8" width="518.4" height="518.4" fill="none" stroke="#1d1d1b" stroke-width="2.6" opacity="1.0"/><rect x="178.8" y="32.8" width="542.4" height="542.4" fill="none" stroke="#1d1d1b" stroke-width="1.4" opacity="0.6"/><line x1="223.2" y1="579.2" x2="223.2" y2="587.2" stroke="#1d1d1b" stroke-width="1.6" opacity="0.6"/><line x1="166.8" y1="77.2" x2="174.8" y2="77.2" stroke="#1d1d1b" stroke-width="1.6" opacity="0.6"/><line x1="288.0" y1="579.2" x2="288.0" y2="587.2" stroke="#1d1d1b" stroke-width="1.6" opacity="0.6"/><line x1="166.8" y1="142.0" x2="174.8" y2="142.0" stroke="#1d1d1b" stroke-width="1.6" opacity="0.6"/><line x1="352.8" y1="579.2" x2="352.8" y2="587.2" stroke="#1d1d1b" stroke-width="1.6" opacity="0.6"/><line x1="166.8" y1="206.8" x2="174.8" y2="206.8" stroke="#1d1d1b" stroke-width="1.6" opacity="0.6"/><line x1="417.6" y1="579.2" x2="417.6" y2="587.2" stroke="#1d1d1b" stroke-width="1.6" opacity="0.6"/><line x1="166.8" y1="271.6" x2="174.8" y2="271.6" stroke="#1d1d1b" stroke-width="1.6" opacity="0.6"/><line x1="482.4" y1="579.2" x2="482.4" y2="587.2" stroke="#1d1d1b" stroke-width="1.6" opacity="0.6"/><line x1="166.8" y1="336.4" x2="174.8" y2="336.4" stroke="#1d1d1b" stroke-width="1.6" opacity="0.6"/><line x1="547.2" y1="579.2" x2="547.2" y2="587.2" stroke="#1d1d1b" stroke-width="1.6" opacity="0.6"/><line x1="166.8" y1="401.2" x2="174.8" y2="401.2" stroke="#1d1d1b" stroke-width="1.6" opacity="0.6"/><line x1="612.0" y1="579.2" x2="612.0" y2="587.2" stroke="#1d1d1b" stroke-width="1.6" opacity="0.6"/><line x1="166.8" y1="466.0" x2="174.8" y2="466.0" stroke="#1d1d1b" stroke-width="1.6" opacity="0.6"/><line x1="676.8" y1="579.2" x2="676.8" y2="587.2" stroke="#1d1d1b" stroke-width="1.6" opacity="0.6"/><line x1="166.8" y1="530.8" x2="174.8" y2="530.8" stroke="#1d1d1b" stroke-width="1.6" opacity="0.6"/><circle cx="223.2" cy="394.7" r="11.0" fill="#cdc6be" stroke="#1d1d1b" stroke-width="2.8"/><path d="M208.9 416.8 Q223.2 399.9 237.5 416.8 Z" fill="#cdc6be" stroke="#1d1d1b" stroke-width="2.8"/><circle cx="223.2" cy="70.7" r="11.0" fill="url(#h45f)" stroke="#1d1d1b" stroke-width="2.8"/><path d="M208.9 92.8 Q223.2 75.9 237.5 92.8 Z" fill="url(#h45f)" stroke="#1d1d1b" stroke-width="2.8"/><circle cx="288.0" cy="394.7" r="11.0" fill="#cdc6be" stroke="#1d1d1b" stroke-width="2.8"/><path d="M273.7 416.8 Q288.0 399.9 302.3 416.8 Z" fill="#cdc6be" stroke="#1d1d1b" stroke-width="2.8"/><circle cx="288.0" cy="70.7" r="11.0" fill="url(#h45f)" stroke="#1d1d1b" stroke-width="2.8"/><path d="M273.7 92.8 Q288.0 75.9 302.3 92.8 Z" fill="url(#h45f)" stroke="#1d1d1b" stroke-width="2.8"/><circle cx="352.8" cy="394.7" r="11.0" fill="#cdc6be" stroke="#1d1d1b" stroke-width="2.8"/><path d="M338.5 416.8 Q352.8 399.9 367.1 416.8 Z" fill="#cdc6be" stroke="#1d1d1b" stroke-width="2.8"/><circle cx="352.8" cy="70.7" r="11.0" fill="url(#h45f)" stroke="#1d1d1b" stroke-width="2.8"/><path d="M338.5 92.8 Q352.8 75.9 367.1 92.8 Z" fill="url(#h45f)" stroke="#1d1d1b" stroke-width="2.8"/><circle cx="482.4" cy="394.7" r="11.0" fill="#cdc6be" stroke="#1d1d1b" stroke-width="2.8"/><path d="M468.1 416.8 Q482.4 399.9 496.7 416.8 Z" fill="#cdc6be" stroke="#1d1d1b" stroke-width="2.8"/><circle cx="482.4" cy="70.7" r="11.0" fill="url(#h45f)" stroke="#1d1d1b" stroke-width="2.8"/><path d="M468.1 92.8 Q482.4 75.9 496.7 92.8 Z" fill="url(#h45f)" stroke="#1d1d1b" stroke-width="2.8"/><circle cx="547.2" cy="394.7" r="11.0" fill="#cdc6be" stroke="#1d1d1b" stroke-width="2.8"/><path d="M532.9 416.8 Q547.2 399.9 561.5 416.8 Z" fill="#cdc6be" stroke="#1d1d1b" stroke-width="2.8"/><circle cx="547.2" cy="70.7" r="11.0" fill="url(#h45f)" stroke="#1d1d1b" stroke-width="2.8"/><path d="M532.9 92.8 Q547.2 75.9 561.5 92.8 Z" fill="url(#h45f)" stroke="#1d1d1b" stroke-width="2.8"/><circle cx="612.0" cy="394.7" r="11.0" fill="#cdc6be" stroke="#1d1d1b" stroke-width="2.8"/><path d="M597.7 416.8 Q612.0 399.9 626.3 416.8 Z" fill="#cdc6be" stroke="#1d1d1b" stroke-width="2.8"/><circle cx="612.0" cy="70.7" r="11.0" fill="url(#h45f)" stroke="#1d1d1b" stroke-width="2.8"/><path d="M597.7 92.8 Q612.0 75.9 626.3 92.8 Z" fill="url(#h45f)" stroke="#1d1d1b" stroke-width="2.8"/><circle cx="676.8" cy="394.7" r="11.0" fill="#cdc6be" stroke="#1d1d1b" stroke-width="2.8"/><path d="M662.5 416.8 Q676.8 399.9 691.1 416.8 Z" fill="#cdc6be" stroke="#1d1d1b" stroke-width="2.8"/><circle cx="676.8" cy="70.7" r="11.0" fill="url(#h45f)" stroke="#1d1d1b" stroke-width="2.8"/><path d="M662.5 92.8 Q676.8 75.9 691.1 92.8 Z" fill="url(#h45f)" stroke="#1d1d1b" stroke-width="2.8"/><circle cx="417.6" cy="265.1" r="11.0" fill="#cdc6be" stroke="#1d1d1b" stroke-width="2.8"/><path d="M403.3 287.2 Q417.6 270.3 431.9 287.2 Z" fill="#cdc6be" stroke="#1d1d1b" stroke-width="2.8"/><circle cx="417.6" cy="200.3" r="11.0" fill="url(#h45f)" stroke="#1d1d1b" stroke-width="2.8"/><path d="M403.3 222.4 Q417.6 205.5 431.9 222.4 Z" fill="url(#h45f)" stroke="#1d1d1b" stroke-width="2.8"/><path d="M547.2 252.2 Q561.5 271.6 547.2 288.4 Q532.9 271.6 547.2 252.2 Z" fill="#cdc6be" stroke="#1d1d1b" stroke-width="2.8"/><line x1="530.4" y1="291.0" x2="564.0" y2="291.0" stroke="#1d1d1b" stroke-width="2.4" opacity="1.0"/><path d="M534.2 160.1 L538.1 138.1 Q544.6 121.3 560.2 127.7 L553.7 140.7 L561.5 160.1 Z" fill="url(#h45f)" stroke="#1d1d1b" stroke-width="2.8"/><rect x="514.8" y="239.2" width="64.8" height="64.8" fill="none" stroke="#c03f13" stroke-width="3" opacity="1.0"/><circle cx="547.2" cy="271.6" r="3.9" fill="#c03f13"/><rect x="14" y="14" width="872" height="572" fill="none" stroke="#1d1d1b" stroke-width="1" opacity="0.38"/></svg>
