<svg xmlns="http://www.w3.org/2000/svg" viewBox="0 0 1200 675" width="1200" height="675" role="img" aria-label="Engraving of a grid of records, one of them an empty outline"><defs>
    <pattern id="h45" width="7" height="7" patternUnits="userSpaceOnUse" patternTransform="rotate(45)">
      <line x1="0" y1="0" x2="0" y2="7" stroke="#e2dedb" stroke-width="1" opacity="0.55"/>
    </pattern>
    <pattern id="h45f" width="4" height="4" patternUnits="userSpaceOnUse" patternTransform="rotate(45)">
      <line x1="0" y1="0" x2="0" y2="4" stroke="#e2dedb" stroke-width="1" opacity="0.7"/>
    </pattern>
    <pattern id="hv" width="6" height="6" patternUnits="userSpaceOnUse">
      <line x1="0" y1="0" x2="0" y2="6" stroke="#e2dedb" stroke-width="1" opacity="0.45"/>
    </pattern>
    <pattern id="dots" width="8" height="8" patternUnits="userSpaceOnUse">
      <circle cx="2" cy="2" r="1.35" fill="#e2dedb" opacity="0.5"/>
      <circle cx="6" cy="6" r="1.35" fill="#e2dedb" opacity="0.5"/>
    </pattern>
    <pattern id="dotsf" width="5" height="5" patternUnits="userSpaceOnUse">
      <circle cx="1.6" cy="1.6" r="1" fill="#e2dedb" opacity="0.62"/>
    </pattern>
    <pattern id="emberdots" width="7" height="7" patternUnits="userSpaceOnUse">
      <circle cx="2" cy="2" r="1.5" fill="#c03f13" opacity="0.85"/>
      <circle cx="5.5" cy="5.5" r="1.5" fill="#c03f13" opacity="0.85"/>
    </pattern>
  </defs><rect width="1200" height="675" fill="#1d1d1b"/><circle cx="200.0" cy="194.2" r="59.3" fill="url(#dotsf)"/><circle cx="200.0" cy="194.2" r="59.3" fill="none" stroke="#e2dedb" stroke-width="2"/><circle cx="200.0" cy="194.2" r="51.0" fill="none" stroke="#e2dedb" stroke-width="1" opacity="0.5"/><circle cx="200.0" cy="194.2" r="42.7" fill="none" stroke="#e2dedb" stroke-width="1" opacity="0.5"/><circle cx="200.0" cy="194.2" r="34.4" fill="none" stroke="#e2dedb" stroke-width="1" opacity="0.5"/><circle cx="200.0" cy="194.2" r="20.2" fill="#1d1d1b" stroke="#e2dedb" stroke-width="1.6"/><circle cx="200.0" cy="194.2" r="3.2" fill="#e2dedb"/><line x1="140.7" y1="273.5" x2="205.9" y2="273.5" stroke="#e2dedb" stroke-width="3" opacity="0.4"/><circle cx="400.0" cy="194.2" r="59.3" fill="url(#dotsf)"/><circle cx="400.0" cy="194.2" r="59.3" fill="none" stroke="#e2dedb" stroke-width="2"/><circle cx="400.0" cy="194.2" r="51.0" fill="none" stroke="#e2dedb" stroke-width="1" opacity="0.5"/><circle cx="400.0" cy="194.2" r="42.7" fill="none" stroke="#e2dedb" stroke-width="1" opacity="0.5"/><circle cx="400.0" cy="194.2" r="34.4" fill="none" stroke="#e2dedb" stroke-width="1" opacity="0.5"/><circle cx="400.0" cy="194.2" r="20.2" fill="#1d1d1b" stroke="#e2dedb" stroke-width="1.6"/><circle cx="400.0" cy="194.2" r="3.2" fill="#e2dedb"/><line x1="340.7" y1="273.5" x2="419.0" y2="273.5" stroke="#e2dedb" stroke-width="3" opacity="0.4"/><circle cx="600.0" cy="194.2" r="59.3" fill="url(#dotsf)"/><circle cx="600.0" cy="194.2" r="59.3" fill="none" stroke="#e2dedb" stroke-width="2"/><circle cx="600.0" cy="194.2" r="51.0" fill="none" stroke="#e2dedb" stroke-width="1" opacity="0.5"/><circle cx="600.0" cy="194.2" r="42.7" fill="none" stroke="#e2dedb" stroke-width="1" opacity="0.5"/><circle cx="600.0" cy="194.2" r="34.4" fill="none" stroke="#e2dedb" stroke-width="1" opacity="0.5"/><circle cx="600.0" cy="194.2" r="20.2" fill="#1d1d1b" stroke="#e2dedb" stroke-width="1.6"/><circle cx="600.0" cy="194.2" r="3.2" fill="#e2dedb"/><line x1="540.7" y1="273.5" x2="632.0" y2="273.5" stroke="#e2dedb" stroke-width="3" opacity="0.4"/><circle cx="800.0" cy="194.2" r="59.3" fill="url(#dotsf)"/><circle cx="800.0" cy="194.2" r="59.3" fill="none" stroke="#e2dedb" stroke-width="2"/><circle cx="800.0" cy="194.2" r="51.0" fill="none" stroke="#e2dedb" stroke-width="1" opacity="0.5"/><circle cx="800.0" cy="194.2" r="42.7" fill="none" stroke="#e2dedb" stroke-width="1" opacity="0.5"/><circle cx="800.0" cy="194.2" r="34.4" fill="none" stroke="#e2dedb" stroke-width="1" opacity="0.5"/><circle cx="800.0" cy="194.2" r="20.2" fill="#1d1d1b" stroke="#e2dedb" stroke-width="1.6"/><circle cx="800.0" cy="194.2" r="3.2" fill="#e2dedb"/><line x1="740.7" y1="273.5" x2="845.1" y2="273.5" stroke="#e2dedb" stroke-width="3" opacity="0.4"/><circle cx="1000.0" cy="194.2" r="59.3" fill="url(#dotsf)"/><circle cx="1000.0" cy="194.2" r="59.3" fill="none" stroke="#e2dedb" stroke-width="2"/><circle cx="1000.0" cy="194.2" r="51.0" fill="none" stroke="#e2dedb" stroke-width="1" opacity="0.5"/><circle cx="1000.0" cy="194.2" r="42.7" fill="none" stroke="#e2dedb" stroke-width="1" opacity="0.5"/><circle cx="1000.0" cy="194.2" r="34.4" fill="none" stroke="#e2dedb" stroke-width="1" opacity="0.5"/><circle cx="1000.0" cy="194.2" r="20.2" fill="#1d1d1b" stroke="#e2dedb" stroke-width="1.6"/><circle cx="1000.0" cy="194.2" r="3.2" fill="#e2dedb"/><line x1="940.7" y1="273.5" x2="1005.9" y2="273.5" stroke="#e2dedb" stroke-width="3" opacity="0.4"/><circle cx="200.0" cy="342.5" r="59.3" fill="url(#dotsf)"/><circle cx="200.0" cy="342.5" r="59.3" fill="none" stroke="#e2dedb" stroke-width="2"/><circle cx="200.0" cy="342.5" r="51.0" fill="none" stroke="#e2dedb" stroke-width="1" opacity="0.5"/><circle cx="200.0" cy="342.5" r="42.7" fill="none" stroke="#e2dedb" stroke-width="1" opacity="0.5"/><circle cx="200.0" cy="342.5" r="34.4" fill="none" stroke="#e2dedb" stroke-width="1" opacity="0.5"/><circle cx="200.0" cy="342.5" r="20.2" fill="#1d1d1b" stroke="#e2dedb" stroke-width="1.6"/><circle cx="200.0" cy="342.5" r="3.2" fill="#e2dedb"/><line x1="140.7" y1="421.8" x2="219.0" y2="421.8" stroke="#e2dedb" stroke-width="3" opacity="0.4"/><circle cx="400.0" cy="342.5" r="59.3" fill="none" stroke="#c03f13" stroke-width="2.6" stroke-dasharray="9 7"/><circle cx="400.0" cy="342.5" r="20.2" fill="none" stroke="#c03f13" stroke-width="2" stroke-dasharray="6 5"/><line x1="358.5" y1="301.0" x2="441.5" y2="384.0" stroke="#c03f13" stroke-width="2.4" opacity="0.95"/><rect x="324.7" y="267.2" width="150.7" height="150.7" fill="none" stroke="#c03f13" stroke-width="2" opacity="1.0"/><line x1="340.7" y1="421.8" x2="432.0" y2="421.8" stroke="#e2dedb" stroke-width="3" opacity="0.4"/><circle cx="600.0" cy="342.5" r="59.3" fill="url(#dotsf)"/><circle cx="600.0" cy="342.5" r="59.3" fill="none" stroke="#e2dedb" stroke-width="2"/><circle cx="600.0" cy="342.5" r="51.0" fill="none" stroke="#e2dedb" stroke-width="1" opacity="0.5"/><circle cx="600.0" cy="342.5" r="42.7" fill="none" stroke="#e2dedb" stroke-width="1" opacity="0.5"/><circle cx="600.0" cy="342.5" r="34.4" fill="none" stroke="#e2dedb" stroke-width="1" opacity="0.5"/><circle cx="600.0" cy="342.5" r="20.2" fill="#1d1d1b" stroke="#e2dedb" stroke-width="1.6"/><circle cx="600.0" cy="342.5" r="3.2" fill="#e2dedb"/><line x1="540.7" y1="421.8" x2="645.1" y2="421.8" stroke="#e2dedb" stroke-width="3" opacity="0.4"/><circle cx="800.0" cy="342.5" r="59.3" fill="url(#dotsf)"/><circle cx="800.0" cy="342.5" r="59.3" fill="none" stroke="#e2dedb" stroke-width="2"/><circle cx="800.0" cy="342.5" r="51.0" fill="none" stroke="#e2dedb" stroke-width="1" opacity="0.5"/><circle cx="800.0" cy="342.5" r="42.7" fill="none" stroke="#e2dedb" stroke-width="1" opacity="0.5"/><circle cx="800.0" cy="342.5" r="34.4" fill="none" stroke="#e2dedb" stroke-width="1" opacity="0.5"/><circle cx="800.0" cy="342.5" r="20.2" fill="#1d1d1b" stroke="#e2dedb" stroke-width="1.6"/><circle cx="800.0" cy="342.5" r="3.2" fill="#e2dedb"/><line x1="740.7" y1="421.8" x2="805.9" y2="421.8" stroke="#e2dedb" stroke-width="3" opacity="0.4"/><circle cx="1000.0" cy="342.5" r="59.3" fill="url(#dotsf)"/><circle cx="1000.0" cy="342.5" r="59.3" fill="none" stroke="#e2dedb" stroke-width="2"/><circle cx="1000.0" cy="342.5" r="51.0" fill="none" stroke="#e2dedb" stroke-width="1" opacity="0.5"/><circle cx="1000.0" cy="342.5" r="42.7" fill="none" stroke="#e2dedb" stroke-width="1" opacity="0.5"/><circle cx="1000.0" cy="342.5" r="34.4" fill="none" stroke="#e2dedb" stroke-width="1" opacity="0.5"/><circle cx="1000.0" cy="342.5" r="20.2" fill="#1d1d1b" stroke="#e2dedb" stroke-width="1.6"/><circle cx="1000.0" cy="342.5" r="3.2" fill="#e2dedb"/><line x1="940.7" y1="421.8" x2="1019.0" y2="421.8" stroke="#e2dedb" stroke-width="3" opacity="0.4"/><circle cx="200.0" cy="490.8" r="59.3" fill="url(#dotsf)"/><circle cx="200.0" cy="490.8" r="59.3" fill="none" stroke="#e2dedb" stroke-width="2"/><circle cx="200.0" cy="490.8" r="51.0" fill="none" stroke="#e2dedb" stroke-width="1" opacity="0.5"/><circle cx="200.0" cy="490.8" r="42.7" fill="none" stroke="#e2dedb" stroke-width="1" opacity="0.5"/><circle cx="200.0" cy="490.8" r="34.4" fill="none" stroke="#e2dedb" stroke-width="1" opacity="0.5"/><circle cx="200.0" cy="490.8" r="20.2" fill="#1d1d1b" stroke="#e2dedb" stroke-width="1.6"/><circle cx="200.0" cy="490.8" r="3.2" fill="#e2dedb"/><line x1="140.7" y1="570.2" x2="232.0" y2="570.2" stroke="#e2dedb" stroke-width="3" opacity="0.4"/><circle cx="400.0" cy="490.8" r="59.3" fill="url(#dotsf)"/><circle cx="400.0" cy="490.8" r="59.3" fill="none" stroke="#e2dedb" stroke-width="2"/><circle cx="400.0" cy="490.8" r="51.0" fill="none" stroke="#e2dedb" stroke-width="1" opacity="0.5"/><circle cx="400.0" cy="490.8" r="42.7" fill="none" stroke="#e2dedb" stroke-width="1" opacity="0.5"/><circle cx="400.0" cy="490.8" r="34.4" fill="none" stroke="#e2dedb" stroke-width="1" opacity="0.5"/><circle cx="400.0" cy="490.8" r="20.2" fill="#1d1d1b" stroke="#e2dedb" stroke-width="1.6"/><circle cx="400.0" cy="490.8" r="3.2" fill="#e2dedb"/><line x1="340.7" y1="570.2" x2="445.1" y2="570.2" stroke="#e2dedb" stroke-width="3" opacity="0.4"/><circle cx="600.0" cy="490.8" r="59.3" fill="url(#dotsf)"/><circle cx="600.0" cy="490.8" r="59.3" fill="none" stroke="#e2dedb" stroke-width="2"/><circle cx="600.0" cy="490.8" r="51.0" fill="none" stroke="#e2dedb" stroke-width="1" opacity="0.5"/><circle cx="600.0" cy="490.8" r="42.7" fill="none" stroke="#e2dedb" stroke-width="1" opacity="0.5"/><circle cx="600.0" cy="490.8" r="34.4" fill="none" stroke="#e2dedb" stroke-width="1" opacity="0.5"/><circle cx="600.0" cy="490.8" r="20.2" fill="#1d1d1b" stroke="#e2dedb" stroke-width="1.6"/><circle cx="600.0" cy="490.8" r="3.2" fill="#e2dedb"/><line x1="540.7" y1="570.2" x2="605.9" y2="570.2" stroke="#e2dedb" stroke-width="3" opacity="0.4"/><circle cx="800.0" cy="490.8" r="59.3" fill="url(#dotsf)"/><circle cx="800.0" cy="490.8" r="59.3" fill="none" stroke="#e2dedb" stroke-width="2"/><circle cx="800.0" cy="490.8" r="51.0" fill="none" stroke="#e2dedb" stroke-width="1" opacity="0.5"/><circle cx="800.0" cy="490.8" r="42.7" fill="none" stroke="#e2dedb" stroke-width="1" opacity="0.5"/><circle cx="800.0" cy="490.8" r="34.4" fill="none" stroke="#e2dedb" stroke-width="1" opacity="0.5"/><circle cx="800.0" cy="490.8" r="20.2" fill="#1d1d1b" stroke="#e2dedb" stroke-width="1.6"/><circle cx="800.0" cy="490.8" r="3.2" fill="#e2dedb"/><line x1="740.7" y1="570.2" x2="819.0" y2="570.2" stroke="#e2dedb" stroke-width="3" opacity="0.4"/><circle cx="1000.0" cy="490.8" r="59.3" fill="url(#dotsf)"/><circle cx="1000.0" cy="490.8" r="59.3" fill="none" stroke="#e2dedb" stroke-width="2"/><circle cx="1000.0" cy="490.8" r="51.0" fill="none" stroke="#e2dedb" stroke-width="1" opacity="0.5"/><circle cx="1000.0" cy="490.8" r="42.7" fill="none" stroke="#e2dedb" stroke-width="1" opacity="0.5"/><circle cx="1000.0" cy="490.8" r="34.4" fill="none" stroke="#e2dedb" stroke-width="1" opacity="0.5"/><circle cx="1000.0" cy="490.8" r="20.2" fill="#1d1d1b" stroke="#e2dedb" stroke-width="1.6"/><circle cx="1000.0" cy="490.8" r="3.2" fill="#e2dedb"/><line x1="940.7" y1="570.2" x2="1032.0" y2="570.2" stroke="#e2dedb" stroke-width="3" opacity="0.4"/><rect x="18" y="18" width="1164" height="639" fill="none" stroke="#e2dedb" stroke-width="1" opacity="0.38"/></svg>
